<svg width="1200" height="900" viewBox="0 0 1200 900" fill="none" xmlns="http://www.w3.org/2000/svg">
  <defs>
    <linearGradient id="bg" x1="140" y1="60" x2="1060" y2="840" gradientUnits="userSpaceOnUse">
      <stop stop-color="#F8FBFF"/>
      <stop offset="0.52" stop-color="#EEF4FF"/>
      <stop offset="1" stop-color="#E8F8FF"/>
    </linearGradient>
    <radialGradient id="orb" cx="0" cy="0" r="1" gradientUnits="userSpaceOnUse" gradientTransform="translate(610 415) rotate(90) scale(200)">
      <stop stop-color="#2563EB" stop-opacity="0.22"/>
      <stop offset="0.56" stop-color="#0EA5E9" stop-opacity="0.14"/>
      <stop offset="1" stop-color="#00A6D8" stop-opacity="0"/>
    </radialGradient>
    <linearGradient id="line" x1="280" y1="190" x2="930" y2="690" gradientUnits="userSpaceOnUse">
      <stop stop-color="#2563EB" stop-opacity="0.38"/>
      <stop offset="0.55" stop-color="#0EA5E9" stop-opacity="0.72"/>
      <stop offset="1" stop-color="#00A6D8" stop-opacity="0.44"/>
    </linearGradient>
    <linearGradient id="node" x1="390" y1="260" x2="820" y2="610" gradientUnits="userSpaceOnUse">
      <stop stop-color="#FFFFFF"/>
      <stop offset="1" stop-color="#F0F7FF"/>
    </linearGradient>
    <filter id="softShadow" x="0" y="0" width="1200" height="900" filterUnits="userSpaceOnUse" color-interpolation-filters="sRGB">
      <feDropShadow dx="0" dy="24" stdDeviation="26" flood-color="#2563EB" flood-opacity="0.12"/>
    </filter>
  </defs>
  <rect width="1200" height="900" rx="40" fill="url(#bg)"/>
  <circle cx="610" cy="415" r="200" fill="url(#orb)"/>
  <g opacity="0.9">
    <path d="M280 260C386 220 460 250 548 318C640 391 702 430 820 416C912 406 972 362 1000 294" stroke="url(#line)" stroke-width="2.2" stroke-linecap="round"/>
    <path d="M220 520C316 484 410 492 492 550C580 612 654 642 748 622C852 600 928 540 998 448" stroke="url(#line)" stroke-width="2.2" stroke-linecap="round"/>
    <path d="M332 676C430 632 520 628 600 670C680 712 756 724 852 704C930 688 992 646 1040 588" stroke="url(#line)" stroke-width="2.2" stroke-linecap="round"/>
  </g>
  <g filter="url(#softShadow)">
    <g>
      <rect x="412" y="286" width="376" height="244" rx="34" fill="white" fill-opacity="0.86" stroke="#D8E7FF"/>
      <rect x="444" y="318" width="312" height="20" rx="10" fill="#EAF2FF"/>
      <rect x="444" y="354" width="184" height="16" rx="8" fill="#DDEBFF"/>
      <rect x="444" y="386" width="246" height="16" rx="8" fill="#DDEBFF"/>
      <rect x="444" y="418" width="278" height="16" rx="8" fill="#DDEBFF"/>
      <rect x="444" y="454" width="210" height="42" rx="21" fill="url(#line)" fill-opacity="0.12" stroke="#CFE3FF"/>
      <circle cx="752" cy="410" r="58" fill="#EAF6FF" stroke="#CFE3FF"/>
      <circle cx="752" cy="410" r="27" fill="#FFFFFF" stroke="#B8D7FF"/>
      <path d="M734 410h36M752 392v36" stroke="#2563EB" stroke-width="3" stroke-linecap="round"/>
    </g>
    <g>
      <circle cx="308" cy="250" r="22" fill="#FFFFFF" stroke="#C8DEFF"/>
      <circle cx="894" cy="244" r="22" fill="#FFFFFF" stroke="#C8DEFF"/>
      <circle cx="286" cy="578" r="22" fill="#FFFFFF" stroke="#C8DEFF"/>
      <circle cx="908" cy="574" r="22" fill="#FFFFFF" stroke="#C8DEFF"/>
      <circle cx="610" cy="170" r="26" fill="#FFFFFF" stroke="#C8DEFF"/>
      <circle cx="610" cy="708" r="26" fill="#FFFFFF" stroke="#C8DEFF"/>
      <circle cx="610" cy="415" r="74" fill="#FFFFFF" stroke="#B9D7FF" stroke-width="2"/>
      <circle cx="610" cy="415" r="34" fill="#EAF6FF" stroke="#8CC8FF"/>
      <path d="M610 375V455M570 415H650" stroke="#00A6D8" stroke-width="4" stroke-linecap="round"/>
    </g>
  </g>
</svg>
